<svg width="18" height="21" viewBox="0 0 18 21" fill="none" xmlns="http://www.w3.org/2000/svg">
<path d="M10.108 20.2719C8.67066 20.2719 7.33599 20.0199 6.10399 19.5159C4.87199 18.9933 3.78932 18.2746 2.85599 17.3599C1.94132 16.4266 1.23199 15.3439 0.727989 14.1119C0.242656 12.8799 -1.07288e-05 11.5546 -1.07288e-05 10.1359C-1.07288e-05 8.71728 0.242656 7.39194 0.727989 6.15994C1.23199 4.92794 1.94132 3.85461 2.85599 2.93994C3.78932 2.02528 4.86266 1.30661 6.07599 0.783942C7.30799 0.261275 8.65199 -5.79357e-05 10.108 -5.79357e-05C11.676 -5.79357e-05 13.0573 0.261275 14.252 0.783942C15.4467 1.28794 16.5013 1.98794 17.416 2.88394L14.84 5.45994C14.2987 4.86261 13.636 4.39594 12.852 4.05994C12.068 3.72394 11.1533 3.55594 10.108 3.55594C9.19332 3.55594 8.35332 3.71461 7.58799 4.03194C6.84132 4.33061 6.18799 4.77861 5.62799 5.37594C5.06799 5.95461 4.63866 6.65461 4.33999 7.47594C4.04132 8.27861 3.89199 9.16528 3.89199 10.1359C3.89199 11.1253 4.04132 12.0213 4.33999 12.8239C4.63866 13.6266 5.06799 14.3266 5.62799 14.9239C6.18799 15.5026 6.84132 15.9506 7.58799 16.2679C8.35332 16.5853 9.19332 16.7439 10.108 16.7439C11.2093 16.7439 12.152 16.5759 12.936 16.2399C13.7387 15.9039 14.4107 15.4279 14.952 14.8119L17.528 17.3879C16.6133 18.3026 15.5493 19.0119 14.336 19.5159C13.1227 20.0199 11.7133 20.2719 10.108 20.2719Z" fill="#FF6F61"/>
</svg>
