<svg width="120" height="27" viewBox="0 0 120 27" fill="none" xmlns="http://www.w3.org/2000/svg">
<path d="M22.624 23V9.476H26.32V23H22.624ZM24.472 7.292C23.8747 7.292 23.38 7.096 22.988 6.704C22.596 6.29333 22.4 5.78933 22.4 5.192C22.4 4.61333 22.596 4.11867 22.988 3.708C23.38 3.29733 23.8747 3.092 24.472 3.092C25.088 3.092 25.5827 3.29733 25.956 3.708C26.348 4.11867 26.544 4.61333 26.544 5.192C26.544 5.78933 26.348 6.29333 25.956 6.704C25.5827 7.096 25.088 7.292 24.472 7.292ZM38.6693 23V15.244C38.6693 14.4413 38.4173 13.788 37.9133 13.284C37.4093 12.78 36.756 12.528 35.9533 12.528C35.4306 12.528 34.964 12.64 34.5533 12.864C34.1426 13.088 33.816 13.4053 33.5733 13.816C33.3493 14.2267 33.2373 14.7027 33.2373 15.244L31.8093 14.516C31.8093 13.452 32.0333 12.528 32.4813 11.744C32.948 10.9413 33.5826 10.316 34.3853 9.868C35.2066 9.42 36.1306 9.196 37.1573 9.196C38.1466 9.196 39.0333 9.448 39.8173 9.952C40.6013 10.4373 41.2173 11.0813 41.6653 11.884C42.1133 12.668 42.3373 13.5173 42.3373 14.432V23H38.6693ZM29.5693 23V9.476H33.2373V23H29.5693ZM51.76 23.28C50.3413 23.28 49.0813 22.9813 47.98 22.384C46.8786 21.768 46.0013 20.928 45.348 19.864C44.7133 18.8 44.396 17.5867 44.396 16.224C44.396 14.88 44.704 13.6853 45.32 12.64C45.9546 11.576 46.8133 10.736 47.896 10.12C48.9786 9.48533 50.1826 9.168 51.508 9.168C52.8146 9.168 53.9626 9.46667 54.952 10.064C55.96 10.6427 56.744 11.4453 57.304 12.472C57.8826 13.48 58.172 14.628 58.172 15.916C58.172 16.1587 58.1533 16.4107 58.116 16.672C58.0973 16.9147 58.0506 17.1947 57.976 17.512L46.608 17.54V14.796L56.268 14.768L54.784 15.916C54.7466 15.1133 54.5973 14.4413 54.336 13.9C54.0933 13.3587 53.7293 12.948 53.244 12.668C52.7773 12.3693 52.1986 12.22 51.508 12.22C50.78 12.22 50.1453 12.388 49.604 12.724C49.0626 13.0413 48.6426 13.4987 48.344 14.096C48.064 14.6747 47.924 15.3653 47.924 16.168C47.924 16.9893 48.0733 17.708 48.372 18.324C48.6893 18.9213 49.1373 19.388 49.716 19.724C50.2946 20.0413 50.9666 20.2 51.732 20.2C52.4226 20.2 53.048 20.088 53.608 19.864C54.168 19.6213 54.6533 19.2667 55.064 18.8L57.22 20.956C56.5666 21.7213 55.764 22.3 54.812 22.692C53.8786 23.084 52.8613 23.28 51.76 23.28ZM63.6324 15.692V12.584H68.1964C68.7937 12.584 69.3351 12.4627 69.8204 12.22C70.3057 11.9773 70.6884 11.632 70.9684 11.184C71.2484 10.7173 71.3884 10.1573 71.3884 9.504C71.3884 8.86933 71.2484 8.31867 70.9684 7.852C70.6884 7.38533 70.3057 7.03067 69.8204 6.788C69.3351 6.54533 68.7937 6.424 68.1964 6.424H63.6324V3.316H68.5884C69.8391 3.316 70.9591 3.568 71.9484 4.072C72.9564 4.576 73.7497 5.29467 74.3284 6.228C74.9071 7.14267 75.1964 8.23467 75.1964 9.504C75.1964 10.7733 74.9071 11.8747 74.3284 12.808C73.7497 13.7227 72.9564 14.432 71.9484 14.936C70.9591 15.44 69.8391 15.692 68.5884 15.692H63.6324ZM60.8324 23V3.316H64.6404V23H60.8324ZM82.7214 23.28C81.4894 23.28 80.3787 22.972 79.3894 22.356C78.4001 21.74 77.6254 20.9 77.0654 19.836C76.5054 18.772 76.2254 17.5773 76.2254 16.252C76.2254 14.908 76.5054 13.704 77.0654 12.64C77.6254 11.576 78.4001 10.736 79.3894 10.12C80.3787 9.504 81.4894 9.196 82.7214 9.196C83.6921 9.196 84.5601 9.392 85.3254 9.784C86.0907 10.176 86.6974 10.7267 87.1454 11.436C87.6121 12.1267 87.8641 12.9107 87.9014 13.788V18.66C87.8641 19.556 87.6121 20.3493 87.1454 21.04C86.6974 21.7307 86.0907 22.2813 85.3254 22.692C84.5601 23.084 83.6921 23.28 82.7214 23.28ZM83.3934 19.892C84.4201 19.892 85.2507 19.556 85.8854 18.884C86.5201 18.1933 86.8374 17.3067 86.8374 16.224C86.8374 15.5147 86.6881 14.8893 86.3894 14.348C86.1094 13.788 85.7081 13.3587 85.1854 13.06C84.6814 12.7427 84.0841 12.584 83.3934 12.584C82.7214 12.584 82.1241 12.7427 81.6014 13.06C81.0974 13.3587 80.6961 13.788 80.3974 14.348C80.1174 14.8893 79.9774 15.5147 79.9774 16.224C79.9774 16.952 80.1174 17.596 80.3974 18.156C80.6961 18.6973 81.0974 19.1267 81.6014 19.444C82.1241 19.7427 82.7214 19.892 83.3934 19.892ZM86.6414 23V19.36L87.2294 16.056L86.6414 12.808V9.476H90.2814V23H86.6414ZM98.1743 23.308C97.409 23.308 96.653 23.2053 95.9063 23C95.1783 22.7947 94.5063 22.5147 93.8903 22.16C93.2743 21.7867 92.7423 21.3387 92.2943 20.816L94.4783 18.604C94.945 19.1267 95.4863 19.5187 96.1023 19.78C96.7183 20.0413 97.3997 20.172 98.1463 20.172C98.7437 20.172 99.1917 20.088 99.4903 19.92C99.8077 19.752 99.9663 19.5 99.9663 19.164C99.9663 18.7907 99.7983 18.5013 99.4623 18.296C99.145 18.0907 98.725 17.9227 98.2023 17.792C97.6797 17.6427 97.129 17.484 96.5503 17.316C95.9903 17.1293 95.449 16.896 94.9263 16.616C94.4037 16.3173 93.9743 15.916 93.6383 15.412C93.321 14.8893 93.1623 14.2173 93.1623 13.396C93.1623 12.5373 93.3677 11.7907 93.7783 11.156C94.2077 10.5213 94.8143 10.0267 95.5983 9.672C96.3823 9.31733 97.3063 9.14 98.3703 9.14C99.4903 9.14 100.498 9.336 101.394 9.728C102.309 10.12 103.065 10.708 103.662 11.492L101.45 13.704C101.04 13.2 100.573 12.836 100.05 12.612C99.5463 12.388 98.9957 12.276 98.3983 12.276C97.857 12.276 97.437 12.36 97.1383 12.528C96.8583 12.696 96.7183 12.9293 96.7183 13.228C96.7183 13.564 96.877 13.8253 97.1943 14.012C97.5303 14.1987 97.9597 14.3667 98.4823 14.516C99.005 14.6467 99.5463 14.8053 100.106 14.992C100.685 15.16 101.226 15.4027 101.73 15.72C102.253 16.0373 102.673 16.4573 102.99 16.98C103.326 17.5027 103.494 18.1747 103.494 18.996C103.494 20.3213 103.018 21.376 102.066 22.16C101.114 22.9253 99.817 23.308 98.1743 23.308ZM110.616 23.308C109.85 23.308 109.094 23.2053 108.348 23C107.62 22.7947 106.948 22.5147 106.332 22.16C105.716 21.7867 105.184 21.3387 104.736 20.816L106.92 18.604C107.386 19.1267 107.928 19.5187 108.544 19.78C109.16 20.0413 109.841 20.172 110.588 20.172C111.185 20.172 111.633 20.088 111.932 19.92C112.249 19.752 112.408 19.5 112.408 19.164C112.408 18.7907 112.24 18.5013 111.904 18.296C111.586 18.0907 111.166 17.9227 110.644 17.792C110.121 17.6427 109.57 17.484 108.992 17.316C108.432 17.1293 107.89 16.896 107.368 16.616C106.845 16.3173 106.416 15.916 106.08 15.412C105.762 14.8893 105.604 14.2173 105.604 13.396C105.604 12.5373 105.809 11.7907 106.22 11.156C106.649 10.5213 107.256 10.0267 108.04 9.672C108.824 9.31733 109.748 9.14 110.812 9.14C111.932 9.14 112.94 9.336 113.836 9.728C114.75 10.12 115.506 10.708 116.104 11.492L113.892 13.704C113.481 13.2 113.014 12.836 112.492 12.612C111.988 12.388 111.437 12.276 110.84 12.276C110.298 12.276 109.878 12.36 109.58 12.528C109.3 12.696 109.16 12.9293 109.16 13.228C109.16 13.564 109.318 13.8253 109.636 14.012C109.972 14.1987 110.401 14.3667 110.924 14.516C111.446 14.6467 111.988 14.8053 112.548 14.992C113.126 15.16 113.668 15.4027 114.172 15.72C114.694 16.0373 115.114 16.4573 115.432 16.98C115.768 17.5027 115.936 18.1747 115.936 18.996C115.936 20.3213 115.46 21.376 114.508 22.16C113.556 22.9253 112.258 23.308 110.616 23.308Z" fill="white"/>
<path d="M11.144 23.28C9.70667 23.28 8.372 23.028 7.14 22.524C5.908 22.0013 4.82533 21.2827 3.892 20.368C2.97733 19.4347 2.268 18.352 1.764 17.12C1.27867 15.888 1.036 14.5627 1.036 13.144C1.036 11.7253 1.27867 10.4 1.764 9.168C2.268 7.936 2.97733 6.86267 3.892 5.948C4.82533 5.03333 5.89867 4.31467 7.112 3.792C8.344 3.26933 9.688 3.008 11.144 3.008C12.712 3.008 14.0933 3.26933 15.288 3.792C16.4827 4.296 17.5373 4.996 18.452 5.892L15.876 8.468C15.3347 7.87067 14.672 7.404 13.888 7.068C13.104 6.732 12.1893 6.564 11.144 6.564C10.2293 6.564 9.38933 6.72267 8.624 7.04C7.87733 7.33867 7.224 7.78667 6.664 8.384C6.104 8.96267 5.67467 9.66267 5.376 10.484C5.07733 11.2867 4.928 12.1733 4.928 13.144C4.928 14.1333 5.07733 15.0293 5.376 15.832C5.67467 16.6347 6.104 17.3347 6.664 17.932C7.224 18.5107 7.87733 18.9587 8.624 19.276C9.38933 19.5933 10.2293 19.752 11.144 19.752C12.2453 19.752 13.188 19.584 13.972 19.248C14.7747 18.912 15.4467 18.436 15.988 17.82L18.564 20.396C17.6493 21.3107 16.5853 22.02 15.372 22.524C14.1587 23.028 12.7493 23.28 11.144 23.28Z" fill="#F84565"/>
</svg>
